<svg xmlns="http://www.w3.org/2000/svg" width="907" height="407" viewBox="0 0 907 407">
  <defs>
    <linearGradient id="uconGrad" x1="0" y1="0" x2="907" y2="0" gradientUnits="userSpaceOnUse">
      <stop offset="0%" stop-color="#3173ad"/>
      <stop offset="52%" stop-color="#2b7d99"/>
      <stop offset="100%" stop-color="#a9c351"/>
    </linearGradient>
  </defs>
  <path d="M 10.00,396.00 L 150.00,367.00 L 242.00,353.00 L 346.00,343.00 L 447.00,339.00 L 521.00,340.00 L 609.00,345.00 L 733.00,361.00 L 826.00,378.00 L 831.00,381.00 L 896.00,393.00 L 896.00,391.00 L 864.00,375.00 L 790.00,349.00 L 729.00,333.00 L 671.00,323.00 L 543.00,310.00 L 395.00,309.00 L 280.00,318.00 L 184.00,334.00 L 74.00,365.00 L 30.00,384.00 Z M 37.00,370.00 L 100.00,345.00 L 184.00,322.00 L 276.00,306.00 L 383.00,297.00 L 422.00,288.00 L 481.00,243.00 L 523.00,228.00 L 571.00,179.00 L 588.00,192.00 L 606.00,198.00 L 649.00,150.00 L 647.00,202.00 L 633.00,233.00 L 648.00,228.00 L 665.00,211.00 L 667.00,226.00 L 660.00,254.00 L 643.00,284.00 L 639.00,280.00 L 640.00,251.00 L 567.00,278.00 L 595.00,240.00 L 594.00,235.00 L 544.00,261.00 L 497.00,278.00 L 494.00,276.00 L 506.00,254.00 L 457.00,286.00 L 451.00,295.00 L 576.00,300.00 L 679.00,313.00 L 760.00,330.00 L 888.00,374.00 L 879.00,358.00 L 778.00,239.00 L 772.00,236.00 L 758.00,240.00 L 653.00,122.00 L 647.00,122.00 L 602.00,172.00 L 496.00,50.00 L 483.00,50.00 L 448.00,10.00 L 329.00,155.00 L 270.00,93.00 L 196.00,192.00 L 174.00,204.00 Z M 788.00,295.00 L 791.00,292.00 L 795.00,296.00 L 793.00,298.00 L 791.00,298.00 L 790.00,297.00 L 789.00,297.00 L 788.00,296.00 Z M 714.00,235.00 L 715.00,234.00 L 717.00,234.00 L 718.00,235.00 L 717.00,236.00 L 718.00,235.00 L 720.00,237.00 L 720.00,238.00 L 721.00,238.00 L 725.00,242.00 L 726.00,242.00 L 728.00,244.00 L 730.00,244.00 L 732.00,246.00 L 732.00,247.00 L 733.00,247.00 L 734.00,248.00 L 734.00,249.00 L 736.00,249.00 L 738.00,251.00 L 737.00,252.00 L 738.00,251.00 L 739.00,252.00 L 739.00,253.00 L 741.00,253.00 L 746.00,258.00 L 747.00,258.00 L 749.00,260.00 L 748.00,261.00 L 749.00,260.00 L 750.00,261.00 L 750.00,262.00 L 751.00,261.00 L 752.00,262.00 L 752.00,263.00 L 755.00,266.00 L 756.00,265.00 L 757.00,266.00 L 757.00,267.00 L 759.00,269.00 L 760.00,268.00 L 761.00,269.00 L 761.00,270.00 L 762.00,271.00 L 763.00,271.00 L 765.00,273.00 L 766.00,273.00 L 769.00,276.00 L 769.00,277.00 L 771.00,277.00 L 774.00,280.00 L 774.00,281.00 L 776.00,281.00 L 778.00,283.00 L 779.00,283.00 L 782.00,286.00 L 783.00,286.00 L 786.00,289.00 L 788.00,289.00 L 790.00,291.00 L 790.00,293.00 L 788.00,295.00 L 787.00,295.00 L 784.00,293.00 L 782.00,293.00 L 780.00,291.00 L 779.00,291.00 L 778.00,290.00 L 777.00,290.00 L 775.00,288.00 L 773.00,288.00 L 772.00,287.00 L 771.00,287.00 L 769.00,285.00 L 767.00,285.00 L 766.00,284.00 L 765.00,284.00 L 764.00,283.00 L 764.00,282.00 L 761.00,282.00 L 760.00,281.00 L 759.00,281.00 L 756.00,278.00 L 753.00,278.00 L 752.00,277.00 L 751.00,277.00 L 748.00,275.00 L 748.00,276.00 L 750.00,279.00 L 749.00,280.00 L 749.00,281.00 L 750.00,282.00 L 751.00,281.00 L 752.00,282.00 L 752.00,284.00 L 753.00,285.00 L 753.00,286.00 L 755.00,288.00 L 755.00,290.00 L 757.00,292.00 L 757.00,293.00 L 759.00,295.00 L 759.00,297.00 L 760.00,298.00 L 758.00,300.00 L 757.00,299.00 L 757.00,298.00 L 755.00,298.00 L 752.00,295.00 L 752.00,293.00 L 751.00,293.00 L 747.00,289.00 L 747.00,288.00 L 745.00,288.00 L 742.00,285.00 L 743.00,284.00 L 742.00,285.00 L 740.00,282.00 L 738.00,282.00 L 736.00,280.00 L 736.00,278.00 L 735.00,278.00 L 734.00,277.00 L 734.00,276.00 L 733.00,277.00 L 732.00,276.00 L 732.00,275.00 L 729.00,272.00 L 730.00,271.00 L 729.00,272.00 L 728.00,271.00 L 728.00,270.00 L 726.00,270.00 L 725.00,269.00 L 726.00,268.00 L 725.00,269.00 L 724.00,268.00 L 724.00,267.00 L 723.00,266.00 L 722.00,266.00 L 720.00,264.00 L 720.00,263.00 L 718.00,261.00 L 717.00,261.00 L 716.00,260.00 L 716.00,259.00 L 717.00,258.00 L 716.00,257.00 L 717.00,256.00 L 725.00,256.00 L 725.00,255.00 L 724.00,254.00 L 725.00,253.00 L 724.00,253.00 L 723.00,252.00 L 724.00,251.00 L 724.00,250.00 L 723.00,251.00 L 721.00,249.00 L 721.00,248.00 L 720.00,247.00 L 720.00,245.00 L 717.00,242.00 L 717.00,240.00 L 716.00,239.00 L 716.00,238.00 Z M 268.00,126.00 L 270.00,128.00 L 269.00,130.00 L 268.00,129.00 L 270.00,132.00 L 270.00,177.00 L 269.00,178.00 L 270.00,179.00 L 270.00,182.00 L 272.00,183.00 L 273.00,181.00 L 276.00,181.00 L 282.00,177.00 L 291.00,174.00 L 292.00,175.00 L 292.00,178.00 L 290.00,181.00 L 291.00,184.00 L 289.00,186.00 L 287.00,194.00 L 283.00,199.00 L 284.00,198.00 L 285.00,200.00 L 283.00,202.00 L 279.00,210.00 L 279.00,212.00 L 277.00,214.00 L 277.00,216.00 L 274.00,219.00 L 273.00,223.00 L 272.00,224.00 L 271.00,223.00 L 272.00,225.00 L 268.00,229.00 L 267.00,231.00 L 268.00,232.00 L 265.00,235.00 L 265.00,237.00 L 263.00,238.00 L 261.00,243.00 L 257.00,247.00 L 256.00,251.00 L 253.00,253.00 L 253.00,255.00 L 250.00,258.00 L 249.00,261.00 L 247.00,262.00 L 247.00,264.00 L 240.00,272.00 L 239.00,270.00 L 242.00,261.00 L 247.00,253.00 L 247.00,250.00 L 250.00,246.00 L 251.00,240.00 L 245.00,242.00 L 240.00,247.00 L 230.00,253.00 L 213.00,266.00 L 211.00,266.00 L 208.00,268.00 L 207.00,266.00 L 210.00,262.00 L 212.00,262.00 L 213.00,259.00 L 218.00,253.00 L 220.00,252.00 L 220.00,250.00 L 222.00,249.00 L 229.00,240.00 L 231.00,239.00 L 234.00,234.00 L 235.00,235.00 L 234.00,234.00 L 236.00,233.00 L 238.00,229.00 L 240.00,228.00 L 245.00,221.00 L 246.00,222.00 L 245.00,221.00 L 248.00,219.00 L 247.00,218.00 L 248.00,217.00 L 246.00,217.00 L 243.00,219.00 L 241.00,219.00 L 240.00,221.00 L 237.00,221.00 L 236.00,220.00 L 237.00,221.00 L 233.00,225.00 L 231.00,225.00 L 227.00,228.00 L 222.00,229.00 L 219.00,232.00 L 218.00,231.00 L 219.00,232.00 L 218.00,233.00 L 214.00,234.00 L 213.00,236.00 L 211.00,236.00 L 203.00,242.00 L 199.00,243.00 L 191.00,249.00 L 189.00,248.00 L 190.00,249.00 L 189.00,250.00 L 187.00,250.00 L 175.00,258.00 L 169.00,260.00 L 157.00,268.00 L 156.00,267.00 L 155.00,269.00 L 147.00,274.00 L 141.00,276.00 L 140.00,275.00 L 141.00,272.00 L 144.00,269.00 L 145.00,266.00 L 148.00,265.00 L 147.00,264.00 L 151.00,261.00 L 151.00,259.00 L 154.00,255.00 L 157.00,253.00 L 157.00,251.00 L 160.00,249.00 L 160.00,247.00 L 162.00,246.00 L 166.00,240.00 L 171.00,236.00 L 170.00,235.00 L 172.00,234.00 L 173.00,231.00 L 176.00,229.00 L 177.00,226.00 L 182.00,222.00 L 183.00,219.00 L 186.00,216.00 L 192.00,214.00 L 200.00,209.00 L 202.00,209.00 L 209.00,205.00 L 210.00,206.00 L 213.00,201.00 L 212.00,200.00 L 213.00,199.00 L 212.00,198.00 L 213.00,195.00 L 219.00,189.00 L 218.00,188.00 L 221.00,186.00 L 226.00,178.00 L 228.00,177.00 L 232.00,172.00 L 233.00,169.00 L 235.00,168.00 L 251.00,147.00 L 252.00,144.00 L 256.00,139.00 L 259.00,137.00 L 259.00,135.00 L 264.00,129.00 Z M 447.00,36.00 L 448.00,76.00 L 442.00,87.00 L 440.00,97.00 L 437.00,99.00 L 437.00,104.00 L 432.00,117.00 L 430.00,117.00 L 426.00,131.00 L 430.00,127.00 L 431.00,128.00 L 451.00,108.00 L 450.00,107.00 L 457.00,102.00 L 458.00,107.00 L 456.00,107.00 L 457.00,110.00 L 454.00,121.00 L 450.00,128.00 L 451.00,130.00 L 443.00,150.00 L 444.00,152.00 L 442.00,158.00 L 458.00,147.00 L 463.00,141.00 L 464.00,142.00 L 467.00,137.00 L 468.00,138.00 L 475.00,132.00 L 478.00,133.00 L 464.00,177.00 L 460.00,183.00 L 461.00,185.00 L 459.00,186.00 L 459.00,190.00 L 484.00,180.00 L 504.00,169.00 L 508.00,169.00 L 510.00,171.00 L 495.00,189.00 L 491.00,191.00 L 492.00,192.00 L 487.00,197.00 L 486.00,196.00 L 487.00,198.00 L 484.00,198.00 L 485.00,200.00 L 455.00,229.00 L 451.00,230.00 L 441.00,240.00 L 440.00,239.00 L 434.00,245.00 L 431.00,245.00 L 432.00,246.00 L 423.00,253.00 L 418.00,254.00 L 415.00,258.00 L 403.00,265.00 L 399.00,264.00 L 412.00,237.00 L 414.00,236.00 L 418.00,225.00 L 419.00,226.00 L 418.00,225.00 L 432.00,200.00 L 431.00,199.00 L 433.00,194.00 L 436.00,192.00 L 437.00,187.00 L 431.00,189.00 L 423.00,197.00 L 399.00,213.00 L 391.00,221.00 L 387.00,222.00 L 387.00,224.00 L 363.00,241.00 L 360.00,240.00 L 362.00,236.00 L 364.00,236.00 L 363.00,233.00 L 365.00,232.00 L 364.00,230.00 L 375.00,200.00 L 370.00,202.00 L 311.00,262.00 L 309.00,262.00 L 308.00,259.00 L 313.00,250.00 L 319.00,243.00 L 337.00,211.00 L 340.00,209.00 L 349.00,191.00 L 351.00,191.00 L 352.00,186.00 L 358.00,179.00 L 357.00,178.00 L 364.00,169.00 L 371.00,155.00 L 370.00,154.00 L 354.00,167.00 L 353.00,166.00 L 352.00,169.00 L 331.00,180.00 L 328.00,178.00 L 347.00,156.00 L 346.00,155.00 L 351.00,152.00 L 351.00,150.00 L 360.00,141.00 L 368.00,129.00 L 374.00,124.00 L 373.00,123.00 L 381.00,113.00 L 388.00,107.00 L 402.00,88.00 L 403.00,89.00 L 402.00,88.00 L 438.00,46.00 L 442.00,39.00 Z" fill="url(#uconGrad)" fill-rule="evenodd" shape-rendering="geometricPrecision"/>
</svg>